HIERARCHY
ROOT Hips
{
	OFFSET 0.00000 0.00000 0.00000
	CHANNELS 6 Xposition Yposition Zposition Zrotation Yrotation Xrotation 
	JOINT LHipJoint
	{
		OFFSET 0 0 0
		CHANNELS 3 Zrotation Yrotation Xrotation
		JOINT LeftHip
		{
			OFFSET 1.34019 -1.87553 0.90315
			CHANNELS 3 Zrotation Yrotation Xrotation
			JOINT LeftKnee
			{
				OFFSET 2.55316 -7.01474 0.00000
				CHANNELS 3 Zrotation Yrotation Xrotation
				JOINT LeftAnkle
				{
					OFFSET 2.64657 -7.27139 0.00000
					CHANNELS 3 Zrotation Yrotation Xrotation
					JOINT LeftToe
					{
						OFFSET 0.24207 -0.66507 2.14489
						CHANNELS 3 Zrotation Yrotation Xrotation
						End Site
						{
							OFFSET 0.00000 -0.00000 1.12451
						}
					}
				}
			}
		}
	}
	JOINT RHipJoint
	{
		OFFSET 0 0 0
		CHANNELS 3 Zrotation Yrotation Xrotation
		JOINT RightHip
		{
			OFFSET -1.28320 -1.87553 0.90315
			CHANNELS 3 Zrotation Yrotation Xrotation
			JOINT RightKnee
			{
				OFFSET -2.60484 -7.15674 0.00000
				CHANNELS 3 Zrotation Yrotation Xrotation
				JOINT RightAnkle
				{
					OFFSET -2.60296 -7.15159 0.00000
					CHANNELS 3 Zrotation Yrotation Xrotation
					JOINT RightToe
					{
						OFFSET -0.31082 -0.85398 2.28998
						CHANNELS 3 Zrotation Yrotation Xrotation
						End Site
						{
							OFFSET -0.00000 -0.00000 1.21611
						}
					}
				}
			}
		}
	}
	JOINT lowerback
	{
		OFFSET 0 0 0
		CHANNELS 3 Zrotation Yrotation Xrotation
		JOINT Chest
		{
			OFFSET -0.00160 2.05581 -0.15156
			CHANNELS 3 Zrotation Yrotation Xrotation
			JOINT Chest2
			{
				OFFSET 0.04594 2.06326 -0.01617
				CHANNELS 3 Zrotation Yrotation Xrotation
				JOINT lowerneck
				{
					OFFSET 0 0 0
					CHANNELS 3 Zrotation Yrotation Xrotation
					JOINT Neck
					{
						OFFSET 0.03753 1.73883 0.26751
						CHANNELS 3 Zrotation Yrotation Xrotation
						JOINT Head
						{
							OFFSET -0.09795 1.76129 -0.31794
							CHANNELS 3 Zrotation Yrotation Xrotation
							End Site
							{
								OFFSET -0.03611 1.79987 -0.13846
							}
						}
					}
				}
				JOINT LeftCollar
				{
					OFFSET 0 0 0
					CHANNELS 3 Zrotation Yrotation Xrotation
					JOINT LeftShoulder
					{
						OFFSET 3.30667 1.29205 -0.22445
CHANNELS 3 Zrotation Xrotation Yrotation
						JOINT LeftElbow
						{
OFFSET 0 -4.927850 -0.000000
CHANNELS 3 Zrotation Xrotation Yrotation
							JOINT LeftWrist
							{
OFFSET 0 -3.440520 0.000000
CHANNELS 3 Zrotation Xrotation Yrotation
								JOINT lhand
								{
									OFFSET 0 0 0
CHANNELS 3 Zrotation Xrotation Yrotation
									JOINT LFingers
									{
OFFSET 0 -0.654330 0.000000
CHANNELS 3 Zrotation Xrotation Yrotation
										End Site
										{
OFFSET 0 -0.527530 0.000000
										}
									}
								}
								JOINT LThumb
								{
OFFSET 0 0.000000 0.000000
CHANNELS 3 Zrotation Xrotation Yrotation
									End Site
									{
OFFSET 0 -0.535590 0.535590
									}
								}
							}
						}
					}
				}
				JOINT RightCollar
				{
					OFFSET 0 0 0
					CHANNELS 3 Zrotation Yrotation Xrotation
					JOINT RightShoulder
					{
						OFFSET -3.20032 1.49783 -0.27688
CHANNELS 3 Zrotation Xrotation Yrotation
						JOINT RightElbow
						{
OFFSET 0 -5.091810 -0.000000
CHANNELS 3 Zrotation Xrotation Yrotation
							JOINT RightWrist
							{
OFFSET 0 -3.498650 -0.000000
CHANNELS 3 Zrotation Xrotation Yrotation
								JOINT rhand
								{
									OFFSET 0 0 0
CHANNELS 3 Zrotation Xrotation Yrotation
									JOINT RFingers
									{
OFFSET 0 -0.666410 0.000000
CHANNELS 3 Zrotation Xrotation Yrotation
										End Site
										{
OFFSET 0 -0.537280 0.000000
										}
									}
								}
								JOINT RThumb
								{
OFFSET 0 0.000000 0.000000
CHANNELS 3 Zrotation Xrotation Yrotation
									End Site
									{
OFFSET 0 -0.545480 0.545480
									}
								}
							}
						}
					}
				}
			}
		}
	}
}
MOTION
Frames: 12
Frame Time: 0.008333333333333333
1.666600 17.851400 -29.064800 -5.425300 -1.273500 8.764300 0.000000 0.000000 0.000000 -20.725800 -0.913800 -19.720300 2.786700 10.341400 30.089600 0.825800 3.670100 -18.875100 0.097800 -2.016800 -5.552000 0.000000 0.000000 0.000000 17.144700 -1.539100 -4.123200 -11.985200 -18.384400 65.941900 0.050400 -12.599700 8.155800 -0.008000 -0.578100 1.588700 -0.001400 -0.473600 7.169000 4.300200 -0.421000 -0.959800 4.541500 -0.145900 -4.996900 5.115300 -5.220700 -19.819700 -4.727300 -7.712200 22.380000 -3.588500 -3.697200 9.983400 -0.000000 0.000000 0.000000 7.814600 1.566700 -20.852000 17.025200 -26.890900 4.098700 14.835600 -5.681700 5.620800 0.000000 0.000000 0.000000 -7.125000 0.000000 0.000000 -8.807400 24.172400 -4.479600 -0.000000 0.000000 0.000000 -7.616900 10.413300 13.832300 -21.242200 -32.109900 -6.178200 -14.391300 -5.647200 5.581100 0.000000 0.000000 0.000000 7.125000 0.000000 -0.000000 10.258100 35.583000 2.405400
1.666693 17.854365 -29.061742 -5.462084 -1.251819 8.812295 0.000000 0.000000 0.000000 -20.680955 -0.884058 -19.771260 2.784662 10.338064 30.078481 0.822742 3.629610 -18.821175 0.101599 -2.055530 -5.659294 0.000000 0.000000 0.000000 17.174720 -1.616096 -4.026283 -11.928773 -18.360403 65.762799 0.040949 -12.557264 8.255774 -0.035333 -1.199996 3.299471 -0.072744 -0.519927 7.204672 4.319750 -0.485024 -1.029291 4.612566 -0.173418 -5.084273 5.154030 -5.047436 -19.761791 -4.756579 -7.470094 22.231382 -3.565522 -3.589628 9.931143 0.000000 0.000000 0.000000 7.741866 1.777952 -20.875349 17.179192 -27.093350 4.168654 14.881835 -5.828650 5.441143 0.000000 0.000000 0.000000 -7.125000 0.000000 0.000000 -8.782569 24.354744 -4.429196 0.000000 0.000000 0.000000 -7.702142 10.440448 14.044479 -21.299182 -32.175870 -6.208498 -14.477654 -5.664156 6.052155 0.000000 0.000000 0.000000 7.125000 0.000000 0.000000 10.259582 36.065544 2.283189
1.666273 17.857245 -29.058344 -5.555171 -1.251465 8.857389 0.000000 0.000000 0.000000 -20.553190 -0.834610 -19.898998 2.781599 10.332852 30.061562 0.814993 3.548684 -18.696103 0.104118 -2.081036 -5.729564 0.000000 0.000000 0.000000 17.292608 -1.620238 -3.894049 -11.876271 -18.337855 65.596153 0.059480 -12.682631 8.092912 -0.040401 -1.296817 3.565964 -0.086931 -0.529230 7.205879 4.364296 -0.493683 -1.104924 4.670580 -0.174747 -5.163286 5.106085 -5.001794 -19.830736 -4.766663 -7.394255 22.373241 -3.560970 -3.556360 10.000707 0.000000 0.000000 0.000000 7.561643 1.842132 -20.816204 17.220405 -27.147448 4.187423 14.709508 -5.905732 5.434578 0.000000 0.000000 0.000000 -7.125000 0.000000 0.000000 -8.910611 24.365873 -4.492935 0.000000 0.000000 0.000000 -7.810844 10.545568 14.108646 -21.323662 -32.204133 -6.221478 -14.601458 -5.838677 6.084126 0.000000 0.000000 0.000000 7.125000 0.000000 0.000000 10.162192 36.104738 2.251064
1.668539 17.857856 -29.053434 -5.540840 -1.268852 8.887811 0.000000 0.000000 0.000000 -20.581696 -0.765533 -19.903460 2.778059 10.326854 30.041726 0.825784 3.412898 -18.729874 0.101226 -2.051454 -5.647891 0.000000 0.000000 0.000000 17.230327 -1.693341 -3.775614 -11.827693 -18.316836 65.441572 0.053288 -12.647887 8.153002 -0.029439 -1.102763 3.031686 -0.009579 -0.408343 7.125376 4.162525 -0.334553 -1.172978 4.394488 -0.100067 -5.202363 5.146729 -5.197835 -19.541994 -4.566777 -7.716546 22.358691 -3.525494 -3.677933 9.931227 0.000000 0.000000 0.000000 7.899431 1.955083 -21.463788 17.318176 -27.275311 4.232112 14.597884 -6.063571 5.290109 0.000000 0.000000 0.000000 -7.125000 0.000000 0.000000 -9.001374 24.516081 -4.507952 0.000000 0.000000 0.000000 -7.415740 10.710573 13.617133 -21.314860 -32.194067 -6.216829 -14.606553 -5.753036 6.051625 0.000000 0.000000 0.000000 7.125000 0.000000 0.000000 10.152884 36.071999 2.257179
1.670259 17.858889 -29.048810 -5.558034 -1.273629 8.915797 0.000000 0.000000 0.000000 -20.567694 -0.698303 -19.923275 2.775293 10.322081 30.026025 0.833366 3.280565 -18.733507 0.100441 -2.043695 -5.626461 0.000000 0.000000 0.000000 17.215645 -1.768264 -3.653078 -11.778096 -18.295234 65.283626 0.051447 -12.648607 8.179289 -0.022740 -0.972016 2.671768 -0.000152 -0.387106 7.062095 4.099375 -0.309385 -1.191342 4.318490 -0.088886 -5.187938 5.144175 -5.221468 -19.485612 -4.504745 -7.761744 22.361788 -3.507055 -3.691326 9.922477 0.000000 0.000000 0.000000 7.968303 2.025799 -21.709401 17.413252 -27.399355 4.275807 14.483238 -6.158034 5.173410 0.000000 0.000000 0.000000 -7.125000 0.000000 0.000000 -9.093013 24.637792 -4.529026 0.000000 0.000000 0.000000 -7.329183 10.705451 13.480066 -21.283294 -32.157545 -6.200029 -14.627369 -5.706488 6.026387 0.000000 0.000000 0.000000 7.125000 0.000000 0.000000 10.131767 36.047517 2.258517
1.671586 17.860123 -29.044173 -5.595021 -1.269487 8.940645 0.000000 0.000000 0.000000 -20.526958 -0.631438 -19.947167 2.772096 10.316587 30.008086 0.839592 3.145182 -18.721956 0.100690 -2.046298 -5.633588 0.000000 0.000000 0.000000 17.229703 -1.848378 -3.527513 -11.729109 -18.273747 65.127462 0.053382 -12.674645 8.171854 -0.016997 -0.837128 2.300814 -0.021508 -0.416201 7.004579 4.109595 -0.351424 -1.180252 4.344760 -0.109641 -5.140394 5.109460 -5.170206 -19.560999 -4.513609 -7.681518 22.394474 -3.499197 -3.657234 9.953872 0.000000 0.000000 0.000000 7.894730 2.061629 -21.748879 17.501692 -27.514335 4.316587 14.348610 -6.225656 5.090686 0.000000 0.000000 0.000000 -7.125000 0.000000 0.000000 -9.197761 24.725177 -4.563658 0.000000 0.000000 0.000000 -7.403454 10.612857 13.523433 -21.240913 -32.108441 -6.177476 -14.645582 -5.688235 5.969742 0.000000 0.000000 0.000000 7.125000 0.000000 0.000000 10.107864 35.990899 2.267201
1.672771 17.861215 -29.039616 -5.637033 -1.257537 8.964944 0.000000 0.000000 0.000000 -20.479452 -0.563874 -19.968411 2.769693 10.312578 29.994931 0.847233 2.999096 -18.720505 0.100968 -2.049078 -5.641242 0.000000 0.000000 0.000000 17.248439 -1.942313 -3.405678 -11.680706 -18.252381 64.973026 0.056034 -12.706952 8.159750 -0.011704 -0.693996 1.907282 -0.045173 -0.453277 6.948339 4.131153 -0.404053 -1.162294 4.385353 -0.135575 -5.085495 5.069755 -5.116622 -19.656243 -4.537002 -7.593626 22.426510 -3.495358 -3.621828 9.988678 0.000000 0.000000 0.000000 7.805524 2.086538 -21.766852 17.587852 -27.626120 4.356425 14.204851 -6.289571 5.019179 0.000000 0.000000 0.000000 -7.125000 0.000000 0.000000 -9.308827 24.801150 -4.603564 0.000000 0.000000 0.000000 -7.502721 10.513579 13.613426 -21.209622 -32.072196 -6.160841 -14.645346 -5.685642 5.895052 0.000000 0.000000 0.000000 7.125000 0.000000 0.000000 10.096524 35.915001 2.283562
1.673737 17.862380 -29.035314 -5.687589 -1.236786 8.991034 0.000000 0.000000 0.000000 -20.418621 -0.499637 -19.995515 2.768511 10.310620 29.988514 0.855475 2.845538 -18.722837 0.101051 -2.049866 -5.643491 0.000000 0.000000 0.000000 17.277881 -2.047811 -3.291626 -11.633264 -18.231269 64.821579 0.059295 -12.751488 8.148893 -0.008237 -0.583817 1.604370 -0.075641 -0.498760 6.903702 4.169662 -0.467313 -1.146996 4.449194 -0.166278 -5.038862 5.029873 -5.054238 -19.762055 -4.580180 -7.488450 22.446061 -3.496049 -3.581301 10.021018 0.000000 0.000000 0.000000 7.688794 2.109308 -21.750641 17.668674 -27.730827 4.394001 14.056416 -6.336395 4.954625 0.000000 0.000000 0.000000 -7.125000 0.000000 0.000000 -9.423072 24.869912 -4.646270 0.000000 0.000000 0.000000 -7.634510 10.422599 13.761053 -21.196377 -32.056839 -6.153840 -14.635819 -5.710481 5.828005 0.000000 0.000000 0.000000 7.125000 0.000000 0.000000 10.094100 35.846379 2.300167
1.674406 17.863636 -29.031227 -5.742675 -1.208945 9.021027 0.000000 0.000000 0.000000 -20.348791 -0.437330 -20.032687 2.768141 10.309941 29.986282 0.863711 2.685931 -18.723094 0.101165 -2.050949 -5.646495 0.000000 0.000000 0.000000 17.312974 -2.161864 -3.188056 -11.588061 -18.210999 64.677064 0.063279 -12.807744 8.136979 -0.006735 -0.529791 1.455757 -0.100972 -0.531524 6.872690 4.198365 -0.512432 -1.153137 4.498411 -0.187674 -5.023834 5.003176 -5.015790 -19.824063 -4.618009 -7.419833 22.450632 -3.499096 -3.556395 10.037428 0.000000 0.000000 0.000000 7.595925 2.149451 -21.777557 17.742515 -27.826246 4.428456 13.902688 -6.374947 4.903657 0.000000 0.000000 0.000000 -7.125000 0.000000 0.000000 -9.540570 24.924833 -4.693415 0.000000 0.000000 0.000000 -7.732935 10.383596 13.880750 -21.201393 -32.062631 -6.156524 -14.624752 -5.746219 5.779036 0.000000 0.000000 0.000000 7.125000 0.000000 0.000000 10.095749 35.796041 2.313136
1.674836 17.864908 -29.027311 -5.796322 -1.177915 9.055212 0.000000 0.000000 0.000000 -20.277861 -0.371245 -20.081578 2.768403 10.310339 29.987518 0.871982 2.517647 -18.720631 0.101468 -2.053910 -5.654594 0.000000 0.000000 0.000000 17.344513 -2.280850 -3.094906 -11.545758 -18.191924 64.541558 0.067896 -12.872163 8.123367 -0.006534 -0.522596 1.435882 -0.116232 -0.540484 6.850086 4.201243 -0.525175 -1.180947 4.511664 -0.193030 -5.039016 4.985947 -5.019708 -19.835924 -4.628694 -7.417837 22.456821 -3.500597 -3.558151 10.042136 0.000000 0.000000 0.000000 7.555864 2.202861 -21.884676 17.807910 -27.910509 4.458994 13.747858 -6.408680 4.877207 0.000000 0.000000 0.000000 -7.125000 0.000000 0.000000 -9.657478 24.954811 -4.745698 0.000000 0.000000 0.000000 -7.761831 10.396683 13.919575 -21.217651 -32.081498 -6.165145 -14.613532 -5.770656 5.753729 0.000000 0.000000 0.000000 7.125000 0.000000 0.000000 10.101184 35.769758 2.320956
1.675180 17.866298 -29.023512 -5.848589 -1.147406 9.090593 0.000000 0.000000 0.000000 -20.205712 -0.295744 -20.142514 2.769119 10.311557 29.991558 0.880136 2.335058 -18.711887 0.101998 -2.059108 -5.669022 0.000000 0.000000 0.000000 17.371401 -2.401224 -3.009233 -11.506488 -18.174122 64.415662 0.073072 -12.948072 8.111678 -0.006653 -0.527348 1.449024 -0.140023 -0.549340 6.828982 4.208736 -0.538400 -1.205620 4.534739 -0.198352 -5.051614 4.954164 -5.024149 -19.877604 -4.631761 -7.415672 22.490118 -3.499510 -3.559377 10.063033 0.000000 0.000000 0.000000 7.504425 2.242588 -21.971471 17.863804 -27.982404 4.485187 13.600535 -6.415758 4.880046 0.000000 0.000000 0.000000 -7.125000 0.000000 0.000000 -9.766854 24.954844 -4.800920 0.000000 0.000000 0.000000 -7.797165 10.400938 13.966199 -21.239326 -32.106658 -6.176685 -14.611479 -5.791679 5.762254 0.000000 0.000000 0.000000 7.125000 0.000000 0.000000 10.104174 35.778258 2.319539
1.675438 17.867630 -29.019732 -5.896093 -1.120348 9.125424 0.000000 0.000000 0.000000 -20.137479 -0.200553 -20.213739 2.770365 10.313734 29.998773 0.888424 2.127911 -18.694869 0.103522 -2.074520 -5.711722 0.000000 0.000000 0.000000 17.387726 -2.523082 -2.929196 -11.470546 -18.157771 64.300356 0.078948 -13.037231 8.100236 -0.006858 -0.533565 1.466122 -0.169220 -0.558602 6.799184 4.215872 -0.552834 -1.228499 4.560265 -0.204237 -5.057250 4.920742 -5.021115 -19.933761 -4.628911 -7.405155 22.543668 -3.496467 -3.555583 10.094879 0.000000 0.000000 0.000000 7.451098 2.284861 -22.046097 17.915833 -28.049213 4.509600 13.463532 -6.404239 4.905274 0.000000 0.000000 0.000000 -7.125000 0.000000 0.000000 -9.866955 24.931968 -4.856910 0.000000 0.000000 0.000000 -7.838102 10.422865 14.045327 -21.282731 -32.156878 -6.199771 -14.633810 -5.828463 5.809158 0.000000 0.000000 0.000000 7.125000 0.000000 0.000000 10.092959 35.827038 2.304748
